HIERARCHY
ROOT Hips
{
	OFFSET -0.087744 88.518600 4.106688
	CHANNELS 6 Xposition Yposition Zposition Zrotation Yrotation Xrotation 
	JOINT Spine
	{
		OFFSET 0.000000 8.814246 -2.080107
		CHANNELS 3 Zrotation Yrotation Xrotation
		JOINT Spine1
		{
			OFFSET -0.000000 8.844141 -0.000000
			CHANNELS 3 Zrotation Yrotation Xrotation
			JOINT Spine2
			{
				OFFSET 0.000000 11.682268 0.000000
				CHANNELS 3 Zrotation Yrotation Xrotation
				JOINT Spine3
				{
					OFFSET 0.000000 11.746700 0.000000
					CHANNELS 3 Zrotation Yrotation Xrotation
					JOINT Neck
					{
						OFFSET 0.000000 17.658264 -0.000000
						CHANNELS 3 Zrotation Yrotation Xrotation
						JOINT Neck1
						{
							OFFSET -0.000000 5.101515 -0.000000
							CHANNELS 3 Zrotation Yrotation Xrotation
							JOINT Head
							{
								OFFSET -0.000000 5.101515 -0.000000
								CHANNELS 3 Zrotation Yrotation Xrotation
								JOINT HeadEnd
								{
									OFFSET 0.000000 11.655085 0.000000
									CHANNELS 3 Zrotation Yrotation Xrotation
									End Site
									{
										OFFSET 0.000000 0.000000 0.000000
									}
								}
							}
						}
					}
					JOINT RightShoulder
					{
						OFFSET -2.625389 11.175210 0.000000
						CHANNELS 3 Zrotation Yrotation Xrotation
						JOINT RightArm
						{
							OFFSET 0.000000 10.434715 -0.000000
							CHANNELS 3 Zrotation Yrotation Xrotation
							JOINT RightForeArm
							{
								OFFSET -0.000000 29.628420 0.000000
								CHANNELS 3 Zrotation Yrotation Xrotation
								JOINT RightHand
								{
									OFFSET -0.000000 22.857611 0.000000
									CHANNELS 3 Zrotation Yrotation Xrotation
									JOINT RightHandThumb1
									{
										OFFSET -2.867323 3.959563 2.944291
										CHANNELS 3 Zrotation Yrotation Xrotation
										JOINT RightHandThumb2
										{
											OFFSET -0.000000 3.350399 0.000000
											CHANNELS 3 Zrotation Yrotation Xrotation
											JOINT RightHandThumb3
											{
												OFFSET 0.000000 3.756509 -0.000000
												CHANNELS 3 Zrotation Yrotation Xrotation
												JOINT RightHandThumb4
												{
													OFFSET -0.000000 3.147345 0.000000
													CHANNELS 3 Zrotation Yrotation Xrotation
													End Site
													{
														OFFSET 0.000000 0.000000 0.000000
													}
												}
											}
										}
									}
									JOINT RightHandIndex1
									{
										OFFSET -0.086752 10.030893 2.345280
										CHANNELS 3 Zrotation Yrotation Xrotation
										JOINT RightHandIndex2
										{
											OFFSET 0.000000 4.061090 -0.000000
											CHANNELS 3 Zrotation Yrotation Xrotation
											JOINT RightHandIndex3
											{
												OFFSET 0.000000 3.248873 -0.000000
												CHANNELS 3 Zrotation Yrotation Xrotation
												JOINT RightHandIndex4
												{
													OFFSET 0.000000 2.639709 -0.000000
													CHANNELS 3 Zrotation Yrotation Xrotation
													End Site
													{
														OFFSET 0.000000 0.000000 0.000000
													}
												}
											}
										}
									}
									JOINT RightHandMiddle1
									{
										OFFSET 0.104102 9.502952 0.006768
										CHANNELS 3 Zrotation Yrotation Xrotation
										JOINT RightHandMiddle2
										{
											OFFSET 0.000000 4.568727 -0.000000
											CHANNELS 3 Zrotation Yrotation Xrotation
											JOINT RightHandMiddle3
											{
												OFFSET -0.000000 3.654981 0.000000
												CHANNELS 3 Zrotation Yrotation Xrotation
												JOINT RightHandMiddle4
												{
													OFFSET 0.000000 2.741236 0.000000
													CHANNELS 3 Zrotation Yrotation Xrotation
													End Site
													{
														OFFSET 0.000000 0.000000 0.000000
													}
												}
											}
										}
									}
									JOINT RightHandRing1
									{
										OFFSET 0.086752 8.921708 -2.267442
										CHANNELS 3 Zrotation Yrotation Xrotation
										JOINT RightHandRing2
										{
											OFFSET 0.000000 4.061090 -0.000000
											CHANNELS 3 Zrotation Yrotation Xrotation
											JOINT RightHandRing3
											{
												OFFSET -0.000000 3.654981 0.000000
												CHANNELS 3 Zrotation Yrotation Xrotation
												JOINT RightHandRing4
												{
													OFFSET 0.000000 2.741236 -0.000000
													CHANNELS 3 Zrotation Yrotation Xrotation
													End Site
													{
														OFFSET 0.000000 0.000000 0.000000
													}
												}
											}
										}
									}
									JOINT RightHandPinky1
									{
										OFFSET -0.173504 7.976997 -4.467199
										CHANNELS 3 Zrotation Yrotation Xrotation
										JOINT RightHandPinky2
										{
											OFFSET 0.000000 3.350399 0.000000
											CHANNELS 3 Zrotation Yrotation Xrotation
											JOINT RightHandPinky3
											{
												OFFSET 0.000000 2.842763 -0.000000
												CHANNELS 3 Zrotation Yrotation Xrotation
												JOINT RightHandPinky4
												{
													OFFSET -0.000000 2.639709 -0.000000
													CHANNELS 3 Zrotation Yrotation Xrotation
													End Site
													{
														OFFSET 0.000000 0.000000 0.000000
													}
												}
											}
										}
									}
									JOINT RightForeArmEnd
									{
										OFFSET 0.000000 0.000000 0.000000
										CHANNELS 3 Zrotation Yrotation Xrotation
										End Site
										{
											OFFSET 0.000000 0.000000 0.000000
										}
									}
								}
								JOINT RightArmEnd
								{
									OFFSET 0.000000 0.000000 0.000000
									CHANNELS 3 Zrotation Yrotation Xrotation
									End Site
									{
										OFFSET 0.000000 0.000000 0.000000
									}
								}
							}
						}
					}
					JOINT LeftShoulder
					{
						OFFSET 2.625389 11.175210 -0.000000
						CHANNELS 3 Zrotation Yrotation Xrotation
						JOINT LeftArm
						{
							OFFSET -0.000000 10.813635 0.000000
							CHANNELS 3 Zrotation Yrotation Xrotation
							JOINT LeftForeArm
							{
								OFFSET -0.000000 28.724781 0.000000
								CHANNELS 3 Zrotation Yrotation Xrotation
								JOINT LeftHand
								{
									OFFSET 0.644384 25.716167 -0.328871
									CHANNELS 3 Zrotation Yrotation Xrotation
									JOINT LeftHandThumb1
									{
										OFFSET 2.867323 3.959563 2.944291
										CHANNELS 3 Zrotation Yrotation Xrotation
										JOINT LeftHandThumb2
										{
											OFFSET -0.000000 3.350399 0.000000
											CHANNELS 3 Zrotation Yrotation Xrotation
											JOINT LeftHandThumb3
											{
												OFFSET -0.000000 3.756509 -0.000000
												CHANNELS 3 Zrotation Yrotation Xrotation
												JOINT LeftHandThumb4
												{
													OFFSET 0.000000 3.100000 -0.000000
													CHANNELS 3 Zrotation Yrotation Xrotation
													End Site
													{
														OFFSET 0.000000 0.000000 0.000000
													}
												}
											}
										}
									}
									JOINT LeftHandIndex1
									{
										OFFSET 0.086752 10.030893 2.345280
										CHANNELS 3 Zrotation Yrotation Xrotation
										JOINT LeftHandIndex2
										{
											OFFSET -0.000000 4.061090 0.000000
											CHANNELS 3 Zrotation Yrotation Xrotation
											JOINT LeftHandIndex3
											{
												OFFSET 0.000000 3.248873 0.000000
												CHANNELS 3 Zrotation Yrotation Xrotation
												JOINT LeftHandIndex4
												{
													OFFSET 0.000000 2.639709 -0.000000
													CHANNELS 3 Zrotation Yrotation Xrotation
													End Site
													{
														OFFSET 0.000000 0.000000 0.000000
													}
												}
											}
										}
									}
									JOINT LeftHandMiddle1
									{
										OFFSET -0.104102 9.502952 0.006768
										CHANNELS 3 Zrotation Yrotation Xrotation
										JOINT LeftHandMiddle2
										{
											OFFSET 0.000000 4.568727 -0.000000
											CHANNELS 3 Zrotation Yrotation Xrotation
											JOINT LeftHandMiddle3
											{
												OFFSET 0.000000 3.654981 0.000000
												CHANNELS 3 Zrotation Yrotation Xrotation
												JOINT LeftHandMiddle4
												{
													OFFSET -0.000000 2.741236 -0.000000
													CHANNELS 3 Zrotation Yrotation Xrotation
													End Site
													{
														OFFSET 0.000000 0.000000 0.000000
													}
												}
											}
										}
									}
									JOINT LeftHandRing1
									{
										OFFSET -0.086752 8.921708 -2.267442
										CHANNELS 3 Zrotation Yrotation Xrotation
										JOINT LeftHandRing2
										{
											OFFSET -0.000000 4.061090 -0.000000
											CHANNELS 3 Zrotation Yrotation Xrotation
											JOINT LeftHandRing3
											{
												OFFSET 0.000000 3.654981 0.000000
												CHANNELS 3 Zrotation Yrotation Xrotation
												JOINT LeftHandRing4
												{
													OFFSET -0.000000 2.741236 -0.000000
													CHANNELS 3 Zrotation Yrotation Xrotation
													End Site
													{
														OFFSET 0.000000 0.000000 0.000000
													}
												}
											}
										}
									}
									JOINT LeftHandPinky1
									{
										OFFSET 0.173504 7.976997 -4.467199
										CHANNELS 3 Zrotation Yrotation Xrotation
										JOINT LeftHandPinky2
										{
											OFFSET 0.000000 3.350399 0.000000
											CHANNELS 3 Zrotation Yrotation Xrotation
											JOINT LeftHandPinky3
											{
												OFFSET -0.000000 2.842763 -0.000000
												CHANNELS 3 Zrotation Yrotation Xrotation
												JOINT LeftHandPinky4
												{
													OFFSET -0.000000 2.639709 -0.000000
													CHANNELS 3 Zrotation Yrotation Xrotation
													End Site
													{
														OFFSET 0.000000 0.000000 0.000000
													}
												}
											}
										}
									}
									JOINT LeftForeArmEnd
									{
										OFFSET 0.000000 0.000000 0.000000
										CHANNELS 3 Zrotation Yrotation Xrotation
										End Site
										{
											OFFSET 0.000000 0.000000 0.000000
										}
									}
								}
								JOINT LeftArmEnd
								{
									OFFSET 0.000000 0.000000 0.000000
									CHANNELS 3 Zrotation Yrotation Xrotation
									End Site
									{
										OFFSET 0.000000 0.000000 0.000000
									}
								}
							}
						}
					}
				}
			}
		}
	}
	JOINT RightUpLeg
	{
		OFFSET -11.289943 0.000000 0.000000
		CHANNELS 3 Zrotation Yrotation Xrotation
		JOINT RightLeg
		{
			OFFSET -0.000000 -38.200325 -0.000000
			CHANNELS 3 Zrotation Yrotation Xrotation
			JOINT RightFoot
			{
				OFFSET -0.000000 -39.900856 -0.000000
				CHANNELS 3 Zrotation Yrotation Xrotation
				JOINT RightToeBase
				{
					OFFSET 0.000000 0.000000 15.261641
					CHANNELS 3 Zrotation Yrotation Xrotation
					JOINT RightToeBaseEnd
					{
						OFFSET 0.000000 0.000000 7.370709
						CHANNELS 3 Zrotation Yrotation Xrotation
						End Site
						{
							OFFSET 0.000000 0.000000 0.000000
						}
					}
				}
				JOINT RightLegEnd
				{
					OFFSET 0.000000 0.000000 0.000000
					CHANNELS 3 Zrotation Yrotation Xrotation
					End Site
					{
						OFFSET 0.000000 0.000000 0.000000
					}
				}
			}
			JOINT RightUpLegEnd
			{
				OFFSET 0.000000 0.000000 0.000000
				CHANNELS 3 Zrotation Yrotation Xrotation
				End Site
				{
					OFFSET 0.000000 0.000000 0.000000
				}
			}
		}
	}
	JOINT LeftUpLeg
	{
		OFFSET 11.315661 0.000000 -0.000000
		CHANNELS 3 Zrotation Yrotation Xrotation
		JOINT LeftLeg
		{
			OFFSET 0.000000 -38.200325 0.000000
			CHANNELS 3 Zrotation Yrotation Xrotation
			JOINT LeftFoot
			{
				OFFSET 0.000000 -39.900856 -0.000000
				CHANNELS 3 Zrotation Yrotation Xrotation
				JOINT LeftToeBase
				{
					OFFSET 0.000000 0.000000 15.261641
					CHANNELS 3 Zrotation Yrotation Xrotation
					JOINT LeftToeBaseEnd
					{
						OFFSET -0.000000 0.000000 7.539996
						CHANNELS 3 Zrotation Yrotation Xrotation
						End Site
						{
							OFFSET 0.000000 0.000000 0.000000
						}
					}
				}
				JOINT LeftLegEnd
				{
					OFFSET 0.000000 0.000000 0.000000
					CHANNELS 3 Zrotation Yrotation Xrotation
					End Site
					{
						OFFSET 0.000000 0.000000 0.000000
					}
				}
			}
			JOINT LeftUpLegEnd
			{
				OFFSET 0.000000 0.000000 0.000000
				CHANNELS 3 Zrotation Yrotation Xrotation
				End Site
				{
					OFFSET 0.000000 0.000000 0.000000
				}
			}
		}
	}
}
MOTION
Frames: 4
Frame Time: 0.016667
-7.402870 88.581535 10.303004 -1.442395 -0.575228 -11.828653 3.985021 -0.826144 6.970151 1.464827 -0.452568 2.231522 -0.536885 -4.211439 7.293272 -1.626258 -1.333197 6.050354 2.352361 1.265674 2.125423 -0.084926 2.824605 -4.706553 -1.811279 -0.901474 -17.516735 0.000000 0.000000 0.000000 88.192268 -0.855644 13.092093 48.512482 -42.592159 14.413450 0.092396 12.194635 27.099640 4.644631 1.976848 -8.873588 19.385506 -1.975414 36.498875 0.000006 0.000026 -46.707695 0.000010 0.000039 -32.282028 0.000004 -0.000013 -0.000033 57.249565 -0.098904 -9.981263 39.689487 0.170576 0.059950 39.676579 0.172451 0.028363 -0.000005 0.000038 -0.000040 55.439510 -0.069431 -7.601099 38.132256 0.055707 0.005179 38.512115 0.064093 0.025702 0.000015 -0.000046 -0.000003 57.967613 0.034787 -2.197790 40.426003 -0.042231 -0.088942 40.429165 -0.049907 -0.057716 -0.000023 0.000709 0.000005 57.386215 0.163478 1.989680 40.053230 -0.137655 -0.242795 39.909397 -0.181712 -0.083419 0.001247 -0.000008 -0.000044 0.000000 0.000000 0.000000 0.000000 0.000000 0.000000 -86.588509 -0.598508 10.974743 -56.977505 35.702892 14.838170 0.574300 -5.145208 42.653999 7.464844 2.334103 -15.598656 -23.969341 1.750726 34.301125 -0.000001 0.000050 -59.520527 -0.000013 0.000001 -41.500977 0.002395 -0.000028 -0.002860 -80.409157 -0.056718 -13.619158 -55.405624 0.144203 0.138309 -55.494034 0.166709 0.119891 0.000041 -0.000003 0.000028 -79.216805 -0.023378 -8.147565 -55.088673 0.037933 0.034772 -54.984470 0.035560 0.028187 0.002486 -0.000055 0.000189 -84.332047 0.055274 -0.865765 -59.695023 -0.077185 -0.116435 -59.531590 -0.065195 -0.074292 -0.000750 0.000014 0.000004 -85.715118 0.167065 6.876177 -60.419613 -0.303776 -0.223171 -60.489483 -0.257561 -0.189328 -0.001126 -0.000018 -0.000045 0.000000 0.000000 0.000000 0.000000 0.000000 0.000000 4.622923 -11.278036 12.507372 0.044403 -0.296145 6.420753 -6.357074 -13.168180 18.914803 -0.542476 0.778023 -18.289785 0.000000 0.000000 0.000000 0.000000 0.000000 0.000000 0.000000 0.000000 0.000000 10.432524 -6.795426 5.507799 0.251597 0.731884 15.651233 -3.802707 6.313531 20.767342 0.828999 -0.376400 -22.199190 0.000000 0.000000 0.000000 0.000000 0.000000 0.000000 0.000000 0.000000 0.000000 
-7.477996 88.605675 10.328439 -1.399195 -0.714652 -11.756137 3.978683 -0.823633 7.006882 1.480411 -0.459959 2.151515 -0.535954 -4.106550 7.302562 -1.630407 -1.295631 6.019241 2.430838 1.240481 2.092659 -0.060645 2.821318 -4.732653 -1.805348 -0.895872 -17.595217 0.000000 0.000000 0.000000 88.122047 -0.824027 13.141001 48.462952 -42.442955 14.698433 0.083573 12.311754 27.014814 4.342113 2.021756 -8.871284 19.263405 -1.977722 36.548290 0.000006 0.000027 -46.408695 0.000010 0.000039 -32.073555 0.000004 -0.000013 -0.000033 56.670704 -0.094449 -10.002400 39.302834 0.166461 0.054473 39.287746 0.168560 0.021293 -0.000005 0.000037 -0.000039 54.869484 -0.068159 -7.642909 37.734715 0.053625 0.002688 38.114590 0.062943 0.023478 0.000015 -0.000047 -0.000003 57.414822 0.033946 -2.259329 40.018147 -0.038528 -0.082313 40.027351 -0.047818 -0.052644 -0.000023 0.000721 0.000006 56.912624 0.158382 1.893037 39.684467 -0.130216 -0.217288 39.548054 -0.176437 -0.061757 0.001204 -0.000007 -0.000045 0.000000 0.000000 0.000000 0.000000 0.000000 0.000000 -86.495132 -0.583915 10.879670 -57.306862 35.385475 14.357927 0.554082 -5.050943 42.214386 7.670072 1.632594 -15.887362 -23.907642 1.757176 34.320034 -0.000000 0.000050 -59.375759 -0.000008 0.000000 -41.395939 0.002483 -0.000027 -0.002758 -80.090065 -0.054122 -13.612820 -55.166348 0.148501 0.170256 -55.260380 0.171216 0.148714 0.000040 -0.000029 0.000028 -78.892189 -0.023344 -8.148557 -54.851616 0.039473 0.046499 -54.746246 0.037060 0.038099 0.002521 -0.000055 0.000184 -83.991150 0.053384 -0.849814 -59.456539 -0.079032 -0.132678 -59.287868 -0.066890 -0.086727 -0.000692 0.000015 0.000004 -85.380325 0.158474 6.867642 -60.192699 -0.307987 -0.266732 -60.259499 -0.261526 -0.225560 -0.001148 -0.000018 -0.000045 0.000000 0.000000 0.000000 0.000000 0.000000 0.000000 4.620643 -11.323787 12.476036 0.045533 -0.298493 6.339743 -6.400384 -13.101708 18.948244 -0.550119 0.776185 -18.318010 0.000000 0.000000 0.000000 0.000000 0.000000 0.000000 0.000000 0.000000 0.000000 10.396700 -6.686784 5.403516 0.249223 0.725736 15.593506 -3.786406 6.328872 20.895760 0.822600 -0.369621 -22.229210 0.000000 0.000000 0.000000 0.000000 0.000000 0.000000 0.000000 0.000000 0.000000 
-7.549609 88.624611 10.356540 -1.365347 -0.856216 -11.692014 3.971716 -0.820574 7.043551 1.495069 -0.466988 2.070863 -0.527272 -3.997981 7.323992 -1.629489 -1.256703 5.991940 2.515026 1.209459 2.047808 -0.035570 2.810081 -4.765409 -1.795097 -0.888592 -17.671383 0.000000 0.000000 0.000000 88.069695 -0.794096 13.205295 48.439663 -42.276802 14.971606 0.076071 12.444269 26.909695 4.012828 2.158223 -8.854561 19.128788 -1.980399 36.602154 0.000006 0.000027 -46.080215 0.000010 0.000040 -31.843771 0.000004 -0.000012 -0.000032 56.029846 -0.089767 -10.036656 38.870579 0.161095 0.050455 38.853554 0.163506 0.015753 -0.000006 0.000036 -0.000039 54.238026 -0.066721 -7.696376 37.292725 0.051108 0.000848 37.672363 0.061429 0.021735 0.000015 -0.000048 -0.000004 56.805904 0.033083 -2.333085 39.566929 -0.033953 -0.076420 39.582653 -0.045216 -0.048195 -0.000022 0.000735 0.000006 56.392021 0.153127 1.780771 39.276386 -0.120672 -0.193656 39.147427 -0.169409 -0.041955 0.001158 -0.000007 -0.000045 0.000000 0.000000 0.000000 0.000000 0.000000 0.000000 -86.406937 -0.571254 10.800520 -57.687706 34.987465 13.859500 0.531029 -4.994725 41.742077 7.925192 0.842636 -16.114735 -23.839441 1.764025 34.342072 0.000000 0.000051 -59.214062 -0.000003 -0.000001 -41.277931 0.002570 -0.000026 -0.002642 -79.730324 -0.051514 -13.613544 -54.897461 0.152691 0.203146 -54.997421 0.175652 0.178086 0.000039 -0.000055 0.000027 -78.529770 -0.023234 -8.153370 -54.586456 0.040921 0.058478 -54.480316 0.038537 0.048251 0.002558 -0.000055 0.000182 -83.619164 0.051432 -0.835574 -59.194069 -0.080821 -0.149271 -59.019428 -0.068562 -0.099317 -0.000615 0.000015 0.000004 -85.017006 0.150063 6.855842 -59.942863 -0.312042 -0.311888 -60.005646 -0.265481 -0.262149 -0.001174 -0.000017 -0.000045 0.000000 0.000000 0.000000 0.000000 0.000000 0.000000 4.614570 -11.377239 12.440851 0.046551 -0.300263 6.278676 -6.433530 -13.044602 18.965405 -0.557450 0.774958 -18.338358 0.000000 0.000000 0.000000 0.000000 0.000000 0.000000 0.000000 0.000000 0.000000 10.378870 -6.558569 5.295650 0.247461 0.719833 15.557285 -3.776934 6.336054 20.995981 0.817402 -0.363662 -22.251389 0.000000 0.000000 0.000000 0.000000 0.000000 0.000000 0.000000 0.000000 0.000000 
-7.617219 88.638557 10.387763 -1.338944 -0.996771 -11.639298 3.963834 -0.816917 7.078452 1.509751 -0.473557 1.991563 -0.514912 -3.884448 7.359184 -1.624359 -1.216483 5.969633 2.609272 1.170873 1.989515 -0.010358 2.788813 -4.807026 -1.779657 -0.879070 -17.744818 0.000000 0.000000 0.000000 88.038475 -0.767414 13.284944 48.437702 -42.093800 15.236285 0.070281 12.591862 26.783400 3.674913 2.385623 -8.839945 18.989096 -1.983348 36.657215 0.000006 0.000027 -45.741287 0.000010 0.000040 -31.605856 0.000004 -0.000012 -0.000032 55.361996 -0.085032 -10.078443 38.417126 0.154751 0.048225 38.398136 0.157587 0.012090 -0.000006 0.000035 -0.000038 53.581139 -0.065162 -7.755728 36.831432 0.048273 -0.000214 37.210564 0.059643 0.020579 0.000015 -0.000049 -0.000004 56.177326 0.032203 -2.412621 39.098267 -0.028839 -0.071567 39.120537 -0.042280 -0.044574 -0.000022 0.000750 0.000006 55.857327 0.147900 1.659909 38.853420 -0.109653 -0.172651 38.731602 -0.161168 -0.024616 0.001111 -0.000007 -0.000045 0.000000 0.000000 0.000000 0.000000 0.000000 0.000000 -86.328636 -0.558541 10.737916 -58.112038 34.514385 13.354036 0.505440 -4.979393 41.250957 8.229838 -0.009898 -16.296041 -23.766205 1.771099 34.366760 0.000001 0.000051 -59.038513 0.000002 -0.000002 -41.149754 0.002652 -0.000026 -0.002512 -79.336403 -0.048916 -13.619694 -54.605221 0.156132 0.233401 -54.710938 0.179366 0.204985 0.000038 -0.000077 0.000027 -78.136848 -0.023063 -8.161575 -54.299160 0.042030 0.069368 -54.192642 0.039783 0.057552 0.002592 -0.000056 0.000182 -83.224136 0.049484 -0.824608 -58.912796 -0.082193 -0.164451 -58.732002 -0.069943 -0.110762 -0.000523 0.000015 0.000004 -84.634354 0.142121 6.839384 -59.675755 -0.315075 -0.353631 -59.734058 -0.268669 -0.295306 -0.001204 -0.000017 -0.000045 0.000000 0.000000 0.000000 0.000000 0.000000 0.000000 4.605023 -11.434212 12.407327 0.047502 -0.301329 6.236501 -6.457255 -12.992157 18.965202 -0.563778 0.774114 -18.349861 0.000000 0.000000 0.000000 0.000000 0.000000 0.000000 0.000000 0.000000 0.000000 10.375993 -6.417028 5.188428 0.246317 0.714362 15.545786 -3.774229 6.339919 21.068365 0.813513 -0.358939 -22.266747 0.000000 0.000000 0.000000 0.000000 0.000000 0.000000 0.000000 0.000000 0.000000 
